<svg id="exportSVG" visibility="visible" xmlns="http://www.w3.org/2000/svg" xmlns:xlink="http://www.w3.org/1999/xlink" version="1.1" data-info="draw.ninja" data-name="java" viewBox="0 0 256 256" width="256" height="256" style="position: fixed; top: 0px; left: 0px;"><defs id="defsExport"><filter id="filter0"><feGaussianBlur stdDeviation="0"></feGaussianBlur></filter><pattern id="patternImage" patternUnits="userSpaceOnUse" x="0" y="0" width="1" height="1" data-x="0" data-y="0" data-width="1" data-height="1" data-multx="1" data-multy="1" patternTransform="matrix(1,0,0,1,0,0)" data-transs="0" data-transf="0" data-source="patternImage" data-draw="1" fill="#B3B3B3" fill-opacity="1"></pattern><pattern id="pattern0" patternUnits="userSpaceOnUse" x="0" y="0" width="10" height="10" data-x="0" data-y="0" data-width="10" data-height="10" data-multx="1" data-multy="1" stroke="none" patternTransform="matrix(1,0,0,1,0,0)" data-transs="0" data-transf="0" data-source="Pattern 0" data-draw="1" fill="#B3B3B3" fill-opacity="1"><path transform="matrix(1,0,0,1,0,0)" d="M0 0 L5 0 L5 5 L0 5 L0 0 Z"></path></pattern><pattern id="pattern1" patternUnits="userSpaceOnUse" x="0" y="0" width="10" height="10" data-x="0" data-y="0" data-width="10" data-height="10" data-multx="1" data-multy="1" stroke="none" patternTransform="matrix(1,0,0,1,0,0)" data-transs="0" data-transf="0" data-source="Pattern 1" data-draw="1" fill="#B3B3B3" fill-opacity="1"><path transform="matrix(1,0,0,1,0,0)" d="M0 5 L5 0 L10 5 L5 10 L0 5 Z"></path></pattern><pattern id="pattern2" patternUnits="userSpaceOnUse" x="0" y="0" width="10" height="10" data-x="0" data-y="0" data-width="10" data-height="10" data-multx="1" data-multy="1" stroke="none" patternTransform="matrix(1,0,0,1,0,0)" data-transs="0" data-transf="0" data-source="Pattern 2" data-draw="1" fill="#B3B3B3" fill-opacity="1"><path transform="matrix(1,0,0,1,0,0)" d="M0 9 L5 1 L10 9 L0 9 Z"></path></pattern><pattern id="pattern3" patternUnits="userSpaceOnUse" x="0" y="0" width="10" height="10" data-x="0" data-y="0" data-width="10" data-height="10" data-multx="1" data-multy="1" stroke="none" patternTransform="matrix(1,0,0,1,0,0)" data-transs="0" data-transf="0" data-source="Pattern 3" data-draw="1" fill="#B3B3B3" fill-opacity="1"><path transform="matrix(1,0,0,1,0,0)" d="M0 5 C0 2.25 2.25 0 5 0 C7.75 0 10 2.25 10 5 C10 7.75 7.75 10 5 10 C2.25 10 0 7.75 0 5 Z"></path></pattern><pattern id="pattern4" patternUnits="userSpaceOnUse" x="0" y="0" width="10" height="10" data-x="0" data-y="0" data-width="10" data-height="10" data-multx="1" data-multy="1" stroke="none" patternTransform="matrix(1,0,0,1,0,0)" data-transs="0" data-transf="0" data-source="Pattern 4" data-draw="1" fill="#B3B3B3" fill-opacity="1"><path transform="matrix(1,0,0,1,0,0)" d="M0 5 L4 4 L5 0 L6 4 L10 5 L6 6 L5 10 L4 6 L0 5 Z"></path></pattern><pattern id="pattern5" patternUnits="userSpaceOnUse" x="0" y="0" width="10" height="10" data-x="0" data-y="0" data-width="10" data-height="10" data-multx="1" data-multy="1" stroke="none" patternTransform="matrix(1,0,0,1,0,0)" data-transs="0" data-transf="0" data-source="Pattern 5" data-draw="1" fill="#B3B3B3" fill-opacity="1"><path transform="matrix(1,0,0,1,0,0)" d="M5 10 C-5 2.75 3 -1.75 5 1 C7 -1.75 15 2.75 5 10 Z"></path></pattern><pattern id="pattern6" patternUnits="userSpaceOnUse" x="0" y="0" width="10" height="10" data-x="0" data-y="0" data-width="10" data-height="10" data-multx="1" data-multy="1" stroke="none" patternTransform="matrix(1,0,0,1,0,0)" data-transs="0" data-transf="0" data-source="Pattern 6" data-draw="1" fill="#B3B3B3" fill-opacity="1"><path transform="matrix(1,0,0,1,0,0)" d="M3 0 L7 0 L7 10 L3 10 L3 0 Z"></path></pattern><pattern id="pattern7" patternUnits="userSpaceOnUse" x="0" y="0" width="10" height="10" data-x="0" data-y="0" data-width="10" data-height="10" data-multx="1" data-multy="1" stroke="none" patternTransform="matrix(1,0,0,1,0,0)" data-transs="0" data-transf="0" data-source="Pattern 7" data-draw="1" fill="#B3B3B3" fill-opacity="1"><path transform="matrix(1,0,0,1,0,0)" d="M10 3 L10 7 L0 7 L0 3 L10 3 Z"></path></pattern><pattern id="pattern8" patternUnits="userSpaceOnUse" x="0" y="0" width="10" height="10" data-x="0" data-y="0" data-width="10" data-height="10" data-multx="1" data-multy="1" stroke="none" patternTransform="matrix(1,0,0,1,0,0)" data-transs="0" data-transf="0" data-source="Pattern 8" data-draw="1" fill="#B3B3B3" fill-opacity="1"><path transform="matrix(1,0,0,1,0,0)" d="M0 10 L3 3 L10 0 L7 7 L0 10 Z"></path></pattern><pattern id="pattern9" patternUnits="userSpaceOnUse" x="0" y="0" width="10" height="10" data-x="0" data-y="0" data-width="10" data-height="10" data-multx="1" data-multy="1" stroke="none" patternTransform="matrix(1,0,0,1,0,0)" data-transs="0" data-transf="0" data-source="Pattern 9" data-draw="1" fill="#B3B3B3" fill-opacity="1"><path transform="matrix(1,0,0,1,0,0)" d="M0 4 L10 4 L10 6 L0 6 L0 4 Z M4 10 L4 0 L6 0 L6 10 L4 10 Z"></path></pattern><linearGradient id="linearSystem" gradientUnits="objectBoundingBox" x1="0%" y1="50%" x2="100%" y2="50%" spreadMethod="pad"><stop offset="50%" stop-color="#D0D0D0" stop-opacity="1"></stop><stop offset="100%" stop-color="transparent" stop-opacity="1"></stop></linearGradient><linearGradient id="linearSystem1" gradientUnits="objectBoundingBox" x1="0%" y1="50%" x2="100%" y2="50%" spreadMethod="pad"><stop offset="30%" stop-color="#D0D0D0" stop-opacity="1"></stop><stop offset="100%" stop-color="transparent" stop-opacity="1"></stop></linearGradient><linearGradient id="linearSystem2" gradientUnits="objectBoundingBox" x1="0%" y1="50%" x2="50%" y2="50%" spreadMethod="repeat"><stop offset="30%" stop-color="#D0D0D0" stop-opacity="1"></stop><stop offset="100%" stop-color="transparent" stop-opacity="1"></stop></linearGradient><linearGradient id="linearSystem3" gradientUnits="objectBoundingBox" x1="0%" y1="50%" x2="50%" y2="50%" spreadMethod="reflect"><stop offset="30%" stop-color="#D0D0D0" stop-opacity="1"></stop><stop offset="100%" stop-color="transparent" stop-opacity="1"></stop></linearGradient><radialGradient id="radialSystem" gradientUnits="objectBoundingBox" r="0.5" cx="0.5" fx="0.5" cy="0.5" fy="0.5" spreadMethod="pad"><stop offset="50%" stop-color="#D0D0D0" stop-opacity="1"></stop><stop offset="100%" stop-color="transparent" stop-opacity="1"></stop></radialGradient><pattern id="patternSystem" patternUnits="userSpaceOnUse" x="0" y="0" width="6" height="8"><path stroke="#D0D0D0" stroke-width="5" fill="none" d="M0 0 L0 10"></path></pattern><linearGradient id="linear0" gradientUnits="objectBoundingBox" x1="0%" y1="50%" x2="100%" y2="50%" spreadMethod="pad"><stop offset="0%" stop-color="#FF8000" stop-opacity="1"></stop><stop offset="100%" stop-color="#FFFF00" stop-opacity="1"></stop></linearGradient><linearGradient id="linear1" gradientUnits="objectBoundingBox" x1="0%" y1="50%" x2="100%" y2="50%" spreadMethod="pad"><stop offset="0%" stop-color="#FFFF00" stop-opacity="1"></stop><stop offset="100%" stop-color="#FF8000" stop-opacity="1"></stop></linearGradient><linearGradient id="linearImport" gradientUnits="objectBoundingBox" x1="0%" y1="50%" x2="100%" y2="50%" spreadMethod="pad"><stop offset="0%" stop-color="#FFFFFF" stop-opacity="0.1"></stop><stop offset="100%" stop-color="#000000" stop-opacity="0.1"></stop></linearGradient><radialGradient id="radial0" gradientUnits="objectBoundingBox" r="0.5" cx="0.5" fx="0.5" cy="0.5" fy="0.5" spreadMethod="pad"><stop offset="0%" stop-color="#FF8000" stop-opacity="1"></stop><stop offset="100%" stop-color="#FFFF00" stop-opacity="1"></stop></radialGradient><radialGradient id="radial1" gradientUnits="objectBoundingBox" r="0.5" cx="0.5" fx="0.5" cy="0.5" fy="0.5" spreadMethod="pad"><stop offset="0%" stop-color="#FFFF00" stop-opacity="1"></stop><stop offset="100%" stop-color="#FF8000" stop-opacity="1"></stop></radialGradient><radialGradient id="radialImport" gradientUnits="objectBoundingBox" r="0.5" cx="0.5" fx="0.5" cy="0.5" fy="0.5" spreadMethod="pad"><stop offset="0%" stop-color="#FFFFFF" stop-opacity="0.1"></stop><stop offset="100%" stop-color="#000000" stop-opacity="0.1"></stop></radialGradient></defs><rect id="pageExport" x="0" y="0" width="256" height="256" fill="none" fill-opacity="0" stroke="none" stroke-width="0"></rect><g id="objectsExport" visibility="visible"><g id="group8" visibility="visible" stroke="#000000" stroke-width="NaN" stroke-opacity="1" stroke-dasharray="none" fill="none" fill-opacity="1" data-name="group" data-title="group" deg="0" data-edit="1" data-centerx="127.998" data-centery="127.999"><path id="path0" d="M96.691 193.214 C96.691 193.214 87.575 198.516 103.179 200.309 C122.084 202.467 131.746 202.158 152.58 198.214 C152.58 198.214 158.056 201.648 165.706 204.623 C119.003 224.639 60.009 203.463 96.691 193.214 Z " data-centerx="-267.461" data-centery="97.814" stroke="none" stroke-width="0" data-sw="0" stroke-opacity="1" stroke-linecap="round" stroke-linejoin="round" fill="#5382a1" fill-opacity="1" fill-rule="evenodd" filter="none" visibility="visible" stroke-dasharray="none" marker-start="none" marker-end="none" data-name="curve" data-title="curve" deg="0" data-grad="0" data-group="group8" data-edit="1"></path><path id="path1" d="M90.984 167.095 C90.984 167.095 80.759 174.664 96.375 176.278 C116.569 178.362 132.518 178.532 160.114 173.218 C160.114 173.218 163.931 177.088 169.933 179.204 C113.469 195.716 50.575 180.506 90.984 167.095 Z " data-centerx="-268.887" data-centery="71.5" stroke="none" stroke-width="0" data-sw="0" stroke-opacity="1" stroke-linecap="round" stroke-linejoin="round" fill="#5382a1" fill-opacity="1" fill-rule="evenodd" filter="none" visibility="visible" stroke-dasharray="none" marker-start="none" marker-end="none" data-name="curve" data-title="curve" deg="0" data-grad="0" data-group="group8" data-edit="1"></path><path id="path2" d="M139.095 122.788 C150.602 136.035 136.071 147.958 136.071 147.958 C136.071 147.958 165.29 132.875 151.871 113.985 C139.339 96.37 129.726 87.619 181.758 57.443 C181.758 57.443 100.087 77.84 139.095 122.788 Z " data-centerx="-237.777" data-centery="-2.554" stroke="none" stroke-width="0" data-sw="0" stroke-opacity="1" stroke-linecap="round" stroke-linejoin="round" fill="#e76f00" fill-opacity="1" fill-rule="evenodd" filter="none" visibility="visible" stroke-dasharray="none" marker-start="none" marker-end="none" data-name="curve" data-title="curve" deg="0" data-grad="0" data-group="group8" data-edit="1"></path><path id="path3" d="M200.862 212.533 C200.862 212.533 207.609 218.091 193.431 222.393 C166.474 230.559 81.234 233.025 57.553 222.717 C49.041 219.015 65.004 213.875 70.025 212.798 C75.263 211.662 78.255 211.874 78.255 211.874 C68.787 205.205 17.067 224.968 51.984 230.627 C147.203 246.07 225.561 223.674 200.862 212.533 Z " data-centerx="-270.182" data-centery="117.947" stroke="none" stroke-width="0" data-sw="0" stroke-opacity="1" stroke-linecap="round" stroke-linejoin="round" fill="#5382a1" fill-opacity="1" fill-rule="evenodd" filter="none" visibility="visible" stroke-dasharray="none" marker-start="none" marker-end="none" data-name="curve" data-title="curve" deg="0" data-grad="0" data-group="group8" data-edit="1"></path><path id="path4" d="M101.076 140.032 C101.076 140.032 57.717 150.33 85.72 154.07 C97.545 155.652 121.117 155.296 143.072 153.455 C161.017 151.942 179.034 148.724 179.034 148.724 C179.034 148.724 172.709 151.433 168.13 154.559 C124.099 166.139 39.041 160.752 63.528 148.906 C84.237 138.896 101.076 140.032 101.076 140.032 Z " data-centerx="-273.817" data-centery="45.236" stroke="none" stroke-width="0" data-sw="0" stroke-opacity="1" stroke-linecap="round" stroke-linejoin="round" fill="#5382a1" fill-opacity="1" fill-rule="evenodd" filter="none" visibility="visible" stroke-dasharray="none" marker-start="none" marker-end="none" data-name="curve" data-title="curve" deg="0" data-grad="0" data-group="group8" data-edit="1"></path><path id="path5" d="M178.857 183.508 C223.616 160.251 202.921 137.899 188.476 140.91 C184.935 141.646 183.357 142.286 183.357 142.286 C183.357 142.286 184.672 140.226 187.182 139.336 C215.757 129.288 237.735 168.967 177.957 184.681 C177.957 184.681 178.649 184.062 178.857 183.508 Z " data-centerx="-196.011" data-centery="55.949" stroke="none" stroke-width="0" data-sw="0" stroke-opacity="1" stroke-linecap="round" stroke-linejoin="round" fill="#5382a1" fill-opacity="1" fill-rule="evenodd" filter="none" visibility="visible" stroke-dasharray="none" marker-start="none" marker-end="none" data-name="curve" data-title="curve" deg="0" data-grad="0" data-group="group8" data-edit="1"></path><path id="path6" d="M151.871 8.716 C151.871 8.716 176.66 33.513 128.361 71.643 C89.63 102.231 119.528 119.671 128.345 139.596 C105.737 119.198 89.145 101.242 100.277 84.529 C116.613 59.997 161.872 48.104 151.871 8.716 Z " data-centerx="-265.448" data-centery="-31.099" stroke="none" stroke-width="0" data-sw="0" stroke-opacity="1" stroke-linecap="round" stroke-linejoin="round" fill="#e76f00" fill-opacity="1" fill-rule="evenodd" filter="none" visibility="visible" stroke-dasharray="none" marker-start="none" marker-end="none" data-name="curve" data-title="curve" deg="0" data-grad="0" data-group="group8" data-edit="1"></path><path id="path7" d="M105.473 246.534 C148.437 249.284 214.412 245.008 215.974 224.679 C215.974 224.679 212.97 232.387 180.466 238.506 C143.797 245.406 98.57 244.601 71.745 240.178 C71.746 240.177 77.237 244.723 105.473 246.534 Z " data-centerx="-249.066" data-centery="130.726" stroke="none" stroke-width="0" data-sw="0" stroke-opacity="1" stroke-linecap="round" stroke-linejoin="round" fill="#5382a1" fill-opacity="1" fill-rule="evenodd" filter="none" visibility="visible" stroke-dasharray="none" marker-start="none" marker-end="none" data-name="curve" data-title="curve" deg="0" data-grad="0" data-group="group8" data-edit="1"></path></g></g><g id="settings" visibility="hidden" data-dn0="primalDraw" data-dn1="#FAFAFA" data-dn2="#D2D2D2" data-dn3="18" data-dn4="#000000" data-dn5="#B3B3B3" data-dn6="1" data-dn7="1" data-dn8="2" data-dn9="round" data-dn10="round" data-dn11="none" data-dn12="none" data-dn13="none" data-dn14="evenodd" data-dn15="10" data-dn16="1" data-dn17="256" data-dn18="256" data-dn19="10" data-dn20="0" data-dn21="1" data-dn22="1" data-dn23="9" data-dn24="group8" data-dn25="2" data-dn26="url(#linear0)" data-dn27="url(#linear1)" data-dn28="url(#radial0)" data-dn29="url(#radial1)" data-dn30="#FF8000" data-dn31="#FFFF00" data-dn32="#000000" data-dn33="1" data-dn34="1" data-dn35="10" data-dn36="" data-dn37="0" data-dn38="71"></g></svg>